<svg width="161" height="54" viewBox="0 0 161 54" fill="none" xmlns="http://www.w3.org/2000/svg">
<g clip-path="url(#clip0_2983_4503)">
<g clip-path="url(#clip1_2983_4503)">
<path d="M22.5512 44.4457H27.9488L26.3774 42.8743C25.9607 42.4576 25.3955 42.2235 24.8062 42.2235H22.5512C13.9601 42.2235 6.99566 35.2592 6.99566 26.6683C6.99566 18.0773 13.9601 11.1131 22.5512 11.113H40.329C48.9201 11.113 55.8846 18.0773 55.8846 26.6683C55.8846 35.2592 48.9201 42.2235 40.329 42.2235H33.6787C32.7946 42.2235 31.9468 41.8723 31.3216 41.2472L29.4807 39.4063C28.4389 38.3645 27.0257 37.7791 25.5523 37.7791H22.5512C16.4147 37.7791 11.4401 32.8047 11.4401 26.6683C11.4401 20.5319 16.4147 15.5574 22.5512 15.5574H40.329C46.4655 15.5574 51.4401 20.5319 51.4401 26.6683C51.4401 32.8047 46.4655 37.7791 40.329 37.7791H36.0589C35.1748 37.7791 34.327 37.4279 33.7018 36.8029L31.8608 34.962C30.819 33.9201 29.4059 33.3348 27.9325 33.3348H22.5512C18.8693 33.3348 15.8845 30.3501 15.8845 26.6683C15.8845 22.9865 18.8693 20.0017 22.5512 20.0017H40.329C44.0109 20.0017 46.9957 22.9865 46.9957 26.6683C46.9957 30.3052 44.0832 33.2619 40.4634 33.3335L40.4627 33.3348H38.8366C37.9525 33.3348 37.1047 32.9836 36.4796 32.3585L34.6386 30.5176C33.7838 29.6627 32.679 29.1152 31.4959 28.9463L31.4401 28.8904H22.5512C21.3239 28.8904 20.329 27.8955 20.329 26.6683C20.329 25.441 21.3239 24.4461 22.5512 24.4461H40.329C41.5563 24.4461 42.5512 25.441 42.5512 26.6683C42.5512 27.8955 41.5563 28.8904 40.329 28.8904H35.8846L37.4559 30.4618C37.8726 30.8785 38.4379 31.1126 39.0272 31.1126H40.329C42.7836 31.1126 44.7734 29.1228 44.7734 26.6683C44.7734 24.2137 42.7836 22.2239 40.329 22.2239H22.5512C20.0966 22.2239 18.1068 24.2137 18.1068 26.6683C18.1068 29.1228 20.0966 31.1126 22.5512 31.1126H30.7102C31.5943 31.1126 32.4422 31.4638 33.0673 32.0889L34.9083 33.9298C35.9502 34.9716 37.3632 35.557 38.8366 35.557H40.8846V35.5399C45.535 35.2532 49.2179 31.3907 49.2179 26.6683C49.2179 21.7592 45.2382 17.7796 40.329 17.7796H22.5512C17.6421 17.7796 13.6623 21.7592 13.6623 26.6683C13.6623 31.5774 17.6421 35.557 22.5512 35.557H27.9325C28.8166 35.557 29.6644 35.9082 30.2895 36.5332L32.1305 38.3741C33.1724 39.416 34.5854 40.0013 36.0589 40.0013H40.329C47.6928 40.0013 53.6623 34.0319 53.6623 26.6683C53.6623 19.3046 47.6928 13.3352 40.329 13.3352H22.5512C15.1874 13.3352 9.21788 19.3046 9.21788 26.6683C9.21788 34.0319 15.1874 40.0013 22.5512 40.0013H25.5523C26.4364 40.0013 27.2842 40.3525 27.9094 40.9776L29.7503 42.8185C30.7922 43.8603 32.2053 44.4457 33.6787 44.4457H40.329C50.1474 44.4457 58.1068 36.4865 58.1068 26.6683C58.1068 16.8501 50.1474 8.89087 40.329 8.89087L22.5512 8.89087C12.7328 8.89087 4.77344 16.8501 4.77344 26.6683C4.77344 36.4865 12.7328 44.4457 22.5512 44.4457Z" fill="#9D9FA2"/>
</g>
<path d="M153.427 41.0536C151.8 41.0536 150.566 40.661 149.725 39.8758C148.884 39.0625 148.463 37.7304 148.463 35.8794V12.28H153.048V35.4588C153.048 36.244 153.188 36.7769 153.469 37.0573C153.749 37.3377 154.17 37.478 154.731 37.478C155.404 37.478 156.049 37.3938 156.666 37.2256V40.5488C156.133 40.7451 155.614 40.8713 155.109 40.9274C154.633 41.0116 154.072 41.0536 153.427 41.0536Z" fill="#9D9FA2"/>
<path d="M144.04 41.0536C142.413 41.0536 141.18 40.661 140.338 39.8758C139.497 39.0625 139.076 37.7304 139.076 35.8794V12.28H143.661V35.4588C143.661 36.244 143.802 36.7769 144.082 37.0573C144.363 37.3377 144.783 37.478 145.344 37.478C146.017 37.478 146.662 37.3938 147.279 37.2256V40.5488C146.746 40.7451 146.228 40.8713 145.723 40.9274C145.246 41.0116 144.685 41.0536 144.04 41.0536Z" fill="#9D9FA2"/>
<path d="M123.63 41.0536C122.368 41.0536 121.19 40.8293 120.096 40.3806C119.03 39.9319 118.175 39.2588 117.53 38.3614C116.885 37.4359 116.562 36.3001 116.562 34.954C116.562 33.0469 117.208 31.5185 118.498 30.3687C119.816 29.1908 121.835 28.6019 124.555 28.6019H130.949V27.7185C130.949 26.765 130.795 26.0078 130.487 25.4469C130.206 24.886 129.673 24.4794 128.888 24.227C128.131 23.9746 127.009 23.8484 125.523 23.8484C123.167 23.8484 120.965 24.1989 118.918 24.9V21.4926C119.816 21.1281 120.909 20.8336 122.199 20.6092C123.489 20.3849 124.878 20.2727 126.364 20.2727C129.281 20.2727 131.496 20.8616 133.011 22.0395C134.553 23.2174 135.324 25.1384 135.324 27.8026V40.633H131.412L131.118 38.6138C130.304 39.399 129.295 40.002 128.089 40.4226C126.911 40.8433 125.425 41.0536 123.63 41.0536ZM124.85 37.7724C126.224 37.7724 127.416 37.5481 128.425 37.0994C129.463 36.6226 130.304 35.9916 130.949 35.2064V31.7148H124.639C123.293 31.7148 122.312 31.9813 121.695 32.5141C121.106 33.0189 120.811 33.8042 120.811 34.8698C120.811 35.9075 121.162 36.6507 121.863 37.0994C122.564 37.5481 123.56 37.7724 124.85 37.7724Z" fill="#9D9FA2"/>
<path d="M111.232 41.0537C109.101 41.0537 107.502 40.4928 106.437 39.371C105.399 38.2212 104.88 36.6648 104.88 34.7016V24.2691H101.936V20.6934H104.88V16.1082L109.423 14.72V20.6934H114.724L114.429 24.2691H109.423V34.4492C109.423 35.5991 109.69 36.4124 110.223 36.8891C110.756 37.3378 111.625 37.5622 112.831 37.5622C113.588 37.5622 114.387 37.4219 115.229 37.1415V40.3806C114.135 40.8294 112.803 41.0537 111.232 41.0537Z" fill="#9D9FA2"/>
<path d="M99.1924 41.0536C97.5658 41.0536 96.3319 40.661 95.4905 39.8758C94.6492 39.0625 94.2285 37.7304 94.2285 35.8794V12.28H98.8138V35.4588C98.8138 36.244 98.954 36.7769 99.2344 37.0573C99.5149 37.3377 99.9356 37.478 100.496 37.478C101.17 37.478 101.815 37.3938 102.432 37.2256V40.5488C101.899 40.7451 101.38 40.8713 100.875 40.9274C100.398 41.0116 99.8374 41.0536 99.1924 41.0536Z" fill="#9D9FA2"/>
<path d="M67.4453 40.6332L77.7937 13.5422H82.9258L93.1901 40.6332H88.4786L85.7864 33.6501H74.8911L72.1988 40.6332H67.4453ZM75.6062 30.1165H85.0292L80.3177 17.7068L75.6062 30.1165Z" fill="#9D9FA2"/>
</g>
<defs>
<clipPath id="clip0_2983_4503">
<rect width="159.888" height="53.3333" fill="white" transform="translate(0.779297 0.000244141)"/>
</clipPath>
<clipPath id="clip1_2983_4503">
<rect width="53.3333" height="35.5548" fill="white" transform="translate(4.7793 8.8894)"/>
</clipPath>
</defs>
</svg>
