<svg width="131" height="54" viewBox="0 0 131 54" fill="none" xmlns="http://www.w3.org/2000/svg">
<g clip-path="url(#clip0_2983_4515)">
<path d="M31.7843 26.7128C36.0255 24.0967 38.9067 19.4752 39.1026 14.1738C39.1141 13.8511 38.849 13.5745 38.5263 13.5745H35.4146C35.1611 13.5745 34.9536 13.3671 34.9536 13.1135V9.90961C34.9536 9.58692 34.6886 9.32185 34.3544 9.33337C29.0645 9.54082 24.443 12.4105 21.8153 16.6516C19.1992 12.422 14.5778 9.54082 9.27634 9.33337C8.95364 9.32185 8.67704 9.58692 8.67704 9.90961V13.0213C8.67704 13.2749 8.4696 13.4823 8.21605 13.4823H5.01215C4.68946 13.4823 4.42438 13.7474 4.43591 14.0816C4.64336 19.3715 7.51304 23.9929 11.7542 26.6206C7.52456 29.2483 4.64336 33.8582 4.43591 39.1596C4.42438 39.4823 4.68946 39.7589 5.01215 39.7589H8.12385C8.3774 39.7589 8.58485 39.9664 8.58485 40.2199V43.4353C8.58485 43.758 8.84992 44.0231 9.18414 44.0116C14.474 43.8041 19.0955 40.9344 21.7231 36.6933C24.3508 40.9344 28.9723 43.8156 34.2622 44.0116C34.5849 44.0231 34.8614 43.758 34.8614 43.4353V40.3236C34.8614 40.0701 35.0689 39.8626 35.3224 39.8626H38.5379C38.8606 39.8626 39.1256 39.5976 39.1141 39.2633C38.9067 33.9619 36.0255 29.3405 31.7843 26.7128ZM21.7692 24.7651C22.818 24.7651 23.6708 25.6179 23.6708 26.6667C23.6708 27.7155 22.818 28.5683 21.7692 28.5683C20.7205 28.5683 19.8676 27.7155 19.8676 26.6667C19.8676 25.6179 20.7205 24.7651 21.7692 24.7651ZM34.4696 14.4734C34.0432 19.7057 29.8827 23.9007 24.662 24.3733C24.3854 24.3963 24.1434 24.1658 24.1664 23.8777C24.5928 18.6454 28.7533 14.4504 33.974 13.9779C34.2506 13.9548 34.4927 14.1853 34.4696 14.4734ZM18.9802 24.2695C13.748 23.8431 9.55293 19.6827 9.08041 14.4619C9.05736 14.1853 9.28786 13.9433 9.57598 13.9664C14.8083 14.3928 19.0033 18.5532 19.4758 23.774C19.4989 24.0621 19.2568 24.3041 18.9802 24.2695ZM9.06889 38.86C9.49531 33.6277 13.6558 29.4327 18.8765 28.9601C19.1531 28.9371 19.3951 29.1676 19.3721 29.4557C18.9457 34.688 14.7852 38.883 9.56446 39.3555C9.28786 39.3786 9.04584 39.1481 9.06889 38.86ZM24.5698 29.0639C29.802 29.4903 33.9971 33.6508 34.4696 38.8715C34.4927 39.1481 34.2622 39.3901 33.974 39.3671C28.7418 38.9406 24.5467 34.7802 24.0742 29.5594C24.0396 29.2713 24.2817 29.0408 24.5698 29.0639Z" fill="#9D9FA2"/>
</g>
<path d="M108.818 36.3809C107.088 34.784 106.223 32.4331 106.223 29.3281C106.223 26.2119 107.088 23.861 108.818 22.2752C110.548 20.6783 113.032 19.8799 116.27 19.8799C119.519 19.8799 122.008 20.6783 123.738 22.2752C125.468 23.861 126.333 26.2119 126.333 29.3281C126.333 32.4331 125.468 34.784 123.738 36.3809C122.008 37.9778 119.519 38.7762 116.27 38.7762C113.032 38.7762 110.548 37.9778 108.818 36.3809ZM113.026 25.0032C112.338 25.9014 111.995 27.3375 111.995 29.3114C111.995 31.2853 112.338 32.727 113.026 33.6363C113.714 34.5456 114.795 35.0003 116.27 35.0003C117.756 35.0003 118.842 34.5456 119.53 33.6363C120.229 32.727 120.578 31.2853 120.578 29.3114C120.578 27.3375 120.229 25.9014 119.53 25.0032C118.842 24.1049 117.756 23.6558 116.27 23.6558C114.795 23.6558 113.714 24.1049 113.026 25.0032Z" fill="#9D9FA2"/>
<path d="M97.4062 37.429V15.6216C97.4062 15.3222 97.5005 15.0783 97.689 14.8897C97.8886 14.6901 98.1326 14.5903 98.4209 14.5903H102.147C102.435 14.5903 102.674 14.6901 102.862 14.8897C103.062 15.0783 103.162 15.3222 103.162 15.6216V37.429C103.162 37.7173 103.062 37.9613 102.862 38.1609C102.674 38.3494 102.435 38.4437 102.147 38.4437H98.4209C98.1326 38.4437 97.8886 38.3494 97.689 38.1609C97.5005 37.9613 97.4062 37.7173 97.4062 37.429Z" fill="#9D9FA2"/>
<path d="M76.348 37.2459C74.8842 36.2257 74.1523 34.784 74.1523 32.921C74.1523 31.058 74.8842 29.6275 76.348 28.6294C77.8229 27.6314 79.7192 27.1324 82.0369 27.1324H87.5428C87.5428 25.8349 87.2711 24.9311 86.7277 24.421C86.1844 23.9109 85.2307 23.6558 83.8667 23.6558C82.5138 23.6558 81.5601 23.9941 81.0056 24.6705C80.4622 25.3359 79.7913 25.6686 78.9929 25.6686H76.5144C76.215 25.6686 75.9655 25.5743 75.7659 25.3858C75.5773 25.1862 75.4831 24.9422 75.4831 24.6539C75.4831 21.4712 78.5049 19.8799 84.5487 19.8799C87.1879 19.8799 89.306 20.4732 90.9029 21.6597C92.4998 22.8352 93.2982 24.6594 93.2982 27.1324V37.4289C93.2982 37.7283 93.2039 37.9723 93.0154 38.1608C92.8269 38.3493 92.5829 38.4436 92.2835 38.4436H89.0731C88.7737 38.4436 88.5298 38.3493 88.3412 38.1608C88.1527 37.9612 88.0585 37.7172 88.0585 37.4289V36.9132C86.3063 38.1663 84.2825 38.7873 81.987 38.7762C79.7026 38.7762 77.8229 38.2661 76.348 37.2459ZM82.4361 30.9083C81.6599 30.9083 81.0444 31.0968 80.5897 31.4739C80.1462 31.8509 79.9244 32.3388 79.9244 32.9377C79.9244 33.5365 80.1573 34.03 80.623 34.4181C81.0888 34.8062 81.7486 35.0003 82.6025 35.0003C84.3102 35.0003 85.957 34.5013 87.5428 33.5032V30.9083H82.4361Z" fill="#9D9FA2"/>
<path d="M73.1206 37.7118C73.1206 38.1998 72.8323 38.4437 72.2556 38.4437H68.4464C68.0139 38.4437 67.5481 38.294 67.0491 37.9946C66.5501 37.6841 66.162 37.3126 65.8847 36.8801L62.9571 32.2392C62.2585 31.1081 61.5543 30.2597 60.8446 29.6942C60.1349 29.1175 59.281 28.8292 58.2829 28.8292H54.7066V36.9134C54.7066 37.3459 54.5514 37.7118 54.2409 38.0112C53.9414 38.2996 53.5755 38.4437 53.143 38.4437H50.0158C49.5833 38.4437 49.2118 38.2885 48.9013 37.978C48.5908 37.6564 48.4355 37.2793 48.4355 36.8468V16.1706C48.4355 15.7382 48.5908 15.3611 48.9013 15.0395C49.2118 14.7179 49.5833 14.5571 50.0158 14.5571H53.143C53.5755 14.5571 53.9414 14.7179 54.2409 15.0395C54.5514 15.3611 54.7066 15.7382 54.7066 16.1706V24.1384H58.2829C59.2588 24.1384 60.1127 23.8722 60.8446 23.3399C61.5876 22.8077 62.2918 21.9482 62.9571 20.7617L65.5354 16.1706C66.1232 15.1061 66.9216 14.5682 67.9307 14.5571H71.7732C72.3055 14.5571 72.5716 14.79 72.5716 15.2558C72.5716 15.5108 72.4774 15.8158 72.2889 16.1706L68.6793 22.7078C68.1581 23.6615 67.5703 24.4489 66.916 25.0699C66.2729 25.6909 65.4301 26.1289 64.3877 26.384C65.1196 26.5392 65.8681 26.9994 66.6333 27.7646C67.4095 28.5298 68.0915 29.3615 68.6793 30.2597L72.8378 36.8801C73.0263 37.2017 73.1206 37.4789 73.1206 37.7118Z" fill="#9D9FA2"/>
<defs>
<clipPath id="clip0_2983_4515">
<rect width="34.6667" height="34.6667" fill="white" transform="translate(4.43555 9.3335)"/>
</clipPath>
</defs>
</svg>
