<svg width="123" height="54" viewBox="0 0 123 54" fill="none" xmlns="http://www.w3.org/2000/svg">
<g clip-path="url(#clip0_2983_4524)">
<path d="M111.63 25.2553C112.354 23.9187 113.023 22.7491 113.635 21.858C114.137 21.134 114.582 21.0226 114.972 21.5239C115.807 22.5264 116.253 24.9211 114.916 27.7058C113.691 30.212 110.906 34.3889 109.57 37.3406C108.177 40.4594 108.122 42.8542 110.015 42.7429C112.299 42.6315 115.362 38.8444 117.311 35.0015C117.589 34.5003 117.979 34.4446 118.202 34.9459C118.425 35.4471 118.425 36.8394 117.701 38.3988C116.253 41.4619 112.744 44.525 109.681 44.3579C106.674 44.1909 105.114 42.4087 105.114 39.7911C103.332 42.0745 100.826 44.1352 98.1527 44.1352C92.9733 44.1352 91.9151 37.0622 96.5376 30.3234C101.049 23.7516 105.448 21.2454 108.233 21.2454C110.628 21.2454 111.742 23.0833 111.63 25.2553ZM106.785 33.8877C110.294 27.7615 110.795 24.3085 109.18 24.1414C107.398 23.9744 103.332 27.5944 100.269 32.5511C97.3173 37.3406 96.5933 42.2416 98.7653 42.2973C101.049 42.353 103.945 38.7887 106.785 33.8877Z" fill="#9D9FA2"/>
<path d="M78.7727 38.8449C76.8234 41.4624 73.8717 44.3027 70.7529 44.08C66.7987 43.8015 66.6873 39.6802 67.9126 36.0045C69.1378 32.3288 71.9781 26.8709 75.5982 21.8028C76.0437 21.1902 76.6006 21.2459 77.0462 21.7472C78.2714 23.585 77.993 26.0912 75.988 29.2657C73.9274 32.5516 72.8135 34.7793 71.644 37.4525C70.4744 40.1815 70.6415 42.1864 71.9224 42.2978C74.0945 42.4649 77.1576 38.5664 80.165 33.7211C83.6736 28.0404 85.2887 24.1976 87.0709 21.8028C87.6278 21.0231 88.0177 20.9118 88.4632 21.4687C89.2986 22.4712 89.7441 24.9216 88.4075 27.7063C87.1823 30.2125 84.3976 34.3894 83.1167 37.2298C81.6687 40.4043 81.8915 42.7433 83.8964 42.632C86.2355 42.5206 89.0758 38.8449 91.2479 34.9464C91.5263 34.4451 92.0276 34.3894 92.2503 34.8907C92.4731 35.3362 92.5288 36.8399 91.7491 38.3993C90.134 41.5181 86.681 44.3584 83.3952 44.3584C79.7751 44.3584 78.3271 42.075 78.7727 38.8449Z" fill="#9D9FA2"/>
<path d="M52.3433 26.9818C54.8495 24.3086 58.6366 21.2455 60.4745 21.5239C62.3124 21.8024 64.0388 24.5314 62.6465 27.4274C61.477 29.8779 58.748 33.9991 57.4671 36.8952C56.0191 40.1254 56.3532 42.7429 58.3582 42.6315C60.6416 42.5201 63.3705 38.8444 65.4869 34.9459C65.7653 34.4447 66.1552 34.4447 66.4336 34.8902C66.8235 35.5028 66.7121 36.7838 65.9324 38.3989C64.4287 41.5177 60.92 44.358 57.6899 44.358C52.956 44.358 51.8421 40.9051 53.4572 36.0598C55.2951 30.6019 60.196 24.6984 59.1936 24.2529C58.6366 24.0301 55.4065 25.5895 51.8421 29.488C48.5562 33.0524 46.1057 38.3989 43.711 43.634C43.4882 44.1352 43.154 44.358 42.6528 43.8568C41.5389 42.7429 41.2048 40.9051 42.0959 38.1204C43.2097 34.6118 47.4981 26.8705 51.0067 21.691C51.3966 21.0784 51.8421 21.1341 52.1763 21.691C53.0117 23.0833 52.956 24.9769 52.3433 26.9818Z" fill="#9D9FA2"/>
<path d="M41.9374 17.7927C42.6614 19.2407 42.2715 20.7444 41.5475 21.5241C40.8235 22.3038 39.2641 22.1368 38.4287 20.6887C37.5376 19.185 37.8161 17.5143 38.7072 16.5675C39.5983 15.6207 41.2133 16.289 41.9374 17.7927ZM32.8594 44.1911C28.6268 44.1911 27.5686 40.6268 29.128 36.06C30.5203 31.9944 34.1961 25.4226 36.2567 22.5266C36.7579 21.8583 37.1478 21.6912 37.5933 22.1925C38.4287 23.0835 38.8742 25.4783 37.5376 28.263C36.3681 30.7135 34.029 34.5006 32.8594 37.2852C31.5228 40.5154 31.6342 42.6874 33.4164 42.576C35.9225 42.4646 38.9856 38.7889 40.6564 34.9461C40.9349 34.4449 41.3247 34.5006 41.5475 34.9461C41.993 35.8372 41.826 37.0067 41.1577 38.3991C39.4869 41.852 35.9782 44.1911 32.8594 44.1911Z" fill="#9D9FA2"/>
<path d="M11.7161 31.6601C9.76681 35.3915 7.81756 39.5685 5.9797 43.8568C5.75693 44.3581 5.42277 44.4695 5.08861 44.0239C4.25322 42.8544 3.80768 41.2393 4.81015 37.8977C6.20247 33.1638 15.7816 14.2839 19.1789 9.55005C19.6801 8.88174 20.07 8.93743 20.5155 9.66144C21.2395 10.9424 21.518 13.6156 19.2346 17.7926C17.7866 20.4102 15.9487 23.696 13.9438 27.4275C21.2395 21.9696 29.0365 15.008 34.3273 9.27159C34.7172 8.82605 35.1627 8.88174 35.3855 9.38298C35.7197 10.6082 35.664 12.5018 33.659 15.2307C31.1529 18.628 23.5786 25.4225 16.0601 30.7133C17.8423 33.5537 19.346 36.1155 20.0143 37.6749C21.3509 40.8494 20.8497 42.7987 20.0143 43.8568C19.6801 44.2467 19.2903 44.2467 19.0118 43.7455C16.8955 39.6242 14.445 35.6143 11.7161 31.6601Z" fill="#9D9FA2"/>
</g>
<defs>
<clipPath id="clip0_2983_4524">
<rect width="122.098" height="53.3333" fill="white" transform="translate(0.234375 0.000244141)"/>
</clipPath>
</defs>
</svg>
