<svg width="171" height="54" viewBox="0 0 171 54" fill="none" xmlns="http://www.w3.org/2000/svg">
<g clip-path="url(#clip0_2983_4481)">
<path d="M42.8513 18.7733C42.1032 17.0627 41.1131 15.4684 39.9112 14.0396C38.1347 11.8643 35.9176 10.09 33.4059 8.83337C30.8941 7.57676 28.1447 6.86633 25.3387 6.74885C22.5327 6.63138 19.7336 7.10951 17.1256 8.15182C14.5177 9.19411 12.1601 10.7769 10.2079 12.7961C8.25572 14.8152 6.75326 17.2249 5.79943 19.8666C4.84559 22.5083 4.46199 25.3221 4.67388 28.1226C4.88578 30.9233 5.68835 33.6473 7.02879 36.1153C8.36923 38.5834 10.2171 40.7396 12.4509 42.442C13.8842 43.5562 15.4679 44.4619 17.155 45.1323C19.5203 46.1017 22.0519 46.6009 24.6081 46.6024C29.8847 46.5908 34.9413 44.4874 38.6698 40.7533C42.3981 37.0192 44.4939 31.9593 44.4977 26.6825C44.5016 23.9606 43.941 21.2675 42.8513 18.7733ZM24.5934 10.7907C26.889 10.7904 29.1569 11.2922 31.238 12.2608C30.7305 12.4801 30.1969 12.6332 29.6503 12.7165C27.8519 12.9768 26.1859 13.8118 24.9009 15.0969C23.616 16.3819 22.781 18.048 22.5207 19.8465C22.4064 20.8551 21.9476 21.7935 21.2219 22.5033C20.4961 23.213 19.5478 23.6506 18.5368 23.7423C16.7384 24.0026 15.0724 24.8377 13.7874 26.1227C12.5025 27.4077 11.6675 29.0738 11.4072 30.8723C11.319 31.8314 10.9098 32.7327 10.2458 33.4303C9.10017 31.0095 8.58551 28.338 8.74974 25.6647C8.91397 22.9915 9.75176 20.4032 11.1852 18.1407C12.6185 15.8784 14.6009 14.0154 16.9479 12.7251C19.2948 11.4348 21.93 10.7593 24.6081 10.7613L24.5934 10.7907ZM12.4362 36.9732C12.6126 36.8115 12.789 36.6645 12.9654 36.4881C14.2732 35.2201 15.1127 33.5463 15.3469 31.7397C15.4418 30.7241 15.8952 29.7756 16.6258 29.0641C17.3289 28.3322 18.2752 27.8825 19.2866 27.7998C21.085 27.5394 22.751 26.7044 24.036 25.4194C25.3209 24.1344 26.1559 22.4683 26.4163 20.6698C26.4799 19.6076 26.9356 18.6069 27.6952 17.8619C28.4157 17.1442 29.3709 16.7109 30.3854 16.6417C32.0375 16.4143 33.5784 15.6798 34.7955 14.5394C36.1813 15.6892 37.3553 17.0723 38.2648 18.6263C38.2089 18.7017 38.1448 18.7708 38.0737 18.8321C37.372 19.5704 36.4269 20.03 35.4129 20.1258C33.6125 20.3816 31.944 21.2152 30.6582 22.5009C29.3725 23.7868 28.539 25.4554 28.2832 27.2558C28.1796 28.2679 27.7293 29.213 27.0087 29.931C26.2879 30.6491 25.3412 31.0959 24.3288 31.1957C22.5251 31.454 20.8529 32.2874 19.5604 33.5718C18.2681 34.8564 17.4245 36.5235 17.155 38.3257C17.0759 39.0442 16.8291 39.7341 16.4347 40.3398C14.9264 39.4442 13.5756 38.3069 12.4362 36.9732ZM24.5934 42.6478C23.1018 42.6494 21.6172 42.4416 20.1833 42.0304C20.6738 41.116 20.9927 40.1194 21.1241 39.0902C21.2272 38.0804 21.6754 37.137 22.3931 36.4193C23.1107 35.7016 24.0541 35.2533 25.0638 35.1503C26.8649 34.8929 28.5343 34.0592 29.8222 32.7739C31.1099 31.4887 31.9471 29.8209 32.2082 28.0203C32.3113 27.0105 32.7595 26.0671 33.4772 25.3494C34.1948 24.6317 35.1382 24.1835 36.1479 24.0804C37.5033 23.9041 38.7952 23.3995 39.9112 22.6103C40.531 24.9594 40.6043 27.4192 40.1258 29.801C39.6473 32.1829 38.6295 34.4236 37.1506 36.3511C35.6718 38.2784 33.7712 39.8415 31.5943 40.9203C29.4176 41.9991 27.0228 42.5649 24.5934 42.5743V42.6478Z" fill="#9D9FA2"/>
<path d="M154.886 15.2012V38.1614H150.145V15.2012H154.886ZM164.8 29.052H154.886V24.3105L164.8 24.2818V29.052ZM166.668 19.9426H154.886V15.2012H166.668V19.9426ZM166.668 38.1614H154.886V33.4199L166.668 33.3912V38.1614Z" fill="#9D9FA2"/>
<path d="M139.932 15.1724V38.1613H135.191V15.1724H139.932ZM147.26 19.9138H127.863V15.2011L147.26 15.1724V19.9138Z" fill="#9D9FA2"/>
<path d="M117.892 15.1724L108.007 38.1613H102.662L112.547 15.1724H117.892ZM117.921 15.1724L127.864 38.1613H122.519L112.576 15.1724H117.921ZM121.944 33.9083H108.294V29.0232L121.944 28.9945V33.9083Z" fill="#9D9FA2"/>
<path d="M78.7793 15.1724H88.4921C91.6914 15.1724 94.3735 15.6896 96.5383 16.7241C98.703 17.7586 99.7854 19.7797 99.7854 22.7874C99.7854 24.5691 99.2107 25.9772 98.0613 27.0117C96.931 28.027 95.5229 28.7358 93.8371 29.1381C92.1704 29.5213 90.3887 29.7129 88.4921 29.7129H83.6357V38.1326V38.1613H78.7793V15.1724ZM89.5266 28.1036H94.9578L99.2969 38.1613H93.8658L89.5266 28.1036ZM88.4921 25.0863C90.0056 25.0863 91.1646 25.0097 91.9692 24.8565C92.793 24.684 93.3677 24.4158 93.6934 24.0518C94.019 23.6878 94.1819 23.1993 94.1819 22.5863C94.1819 21.9733 94.019 21.4847 93.6934 21.1207C93.3677 20.7568 92.793 20.4886 91.9692 20.3161C91.1646 20.1437 90.0056 20.0575 88.4921 20.0575H83.6357V25.0863H88.4921Z" fill="#9D9FA2"/>
<path d="M75.895 15.1724L60.4636 35.0578L60.2337 28.4485L70.119 15.1724H75.895ZM61.2395 15.1724V38.1613H56.498V15.1724H61.2395ZM62.6763 28.2186L65.6649 24.9139L75.895 38.1613H70.119L62.6763 28.2186Z" fill="#9D9FA2"/>
</g>
<defs>
<clipPath id="clip0_2983_4481">
<rect width="170.05" height="53.3333" fill="white" transform="translate(0.617188)"/>
</clipPath>
</defs>
</svg>
