<svg width="176" height="54" viewBox="0 0 176 54" fill="none" xmlns="http://www.w3.org/2000/svg">
<g clip-path="url(#clip0_2983_4490)">
<path d="M30.7025 24.5758C30.216 25.0652 29.8435 25.6558 29.6114 26.3054C29.3793 26.9552 29.2934 27.6481 29.3598 28.3348L29.3367 28.3117C29.405 29.1201 29.2959 29.9335 29.0172 30.6955C28.7385 31.4573 28.297 32.1492 27.7233 32.7228C27.1495 33.2964 26.4575 33.738 25.6955 34.0165C24.9335 34.2951 24.1198 34.4042 23.3114 34.3359L23.3345 34.359C22.3674 34.2691 21.3961 34.4794 20.5529 34.9616C19.7098 35.4437 19.0359 36.1741 18.6232 37.0532C18.2106 37.9323 18.079 38.9172 18.2466 39.8738C18.4144 40.8303 18.873 41.7119 19.5602 42.3982C20.2473 43.0846 21.1294 43.5424 22.0862 43.7091C23.0431 43.8759 24.028 43.7435 24.9069 43.3301C25.7858 42.9166 26.5157 42.2423 26.9972 41.3989C27.4787 40.5554 27.6883 39.5842 27.5974 38.6173L27.6218 38.6404C27.5535 37.8321 27.6625 37.0186 27.9411 36.2566C28.2198 35.4948 28.6615 34.8029 29.2352 34.2293C29.8089 33.6557 30.5009 33.2141 31.2629 32.9356C32.025 32.657 32.8385 32.5479 33.6471 32.6162L33.6227 32.5931C34.4126 32.6641 35.2078 32.5346 35.9345 32.2165C36.661 31.8985 37.2956 31.4022 37.7793 30.7738C38.263 30.1453 38.5803 29.4048 38.7015 28.6212C38.8228 27.8374 38.7442 27.0358 38.4731 26.2904C38.202 25.5451 37.7471 24.8804 37.1506 24.3576C36.5541 23.8349 35.8353 23.4712 35.0607 23.3003C34.2862 23.1293 33.481 23.1565 32.7198 23.3794C31.9586 23.6025 31.2661 24.0139 30.7063 24.5758H30.7025Z" fill="#9D9FA2"/>
<path d="M21.2311 31.3295L21.2067 31.3064C21.8938 31.3756 22.5877 31.2913 23.2384 31.0595C23.8889 30.8277 24.4799 30.4544 24.9684 29.9663C25.4569 29.4782 25.8309 28.8876 26.0631 28.2373C26.2955 27.5871 26.3803 26.8934 26.3116 26.2063L26.336 26.2294C26.2677 25.421 26.3768 24.6076 26.6554 23.8456C26.9341 23.0838 27.3757 22.3919 27.9494 21.8183C28.5232 21.2447 29.2152 20.8031 29.9771 20.5246C30.7392 20.2459 31.5528 20.1369 32.3613 20.2052L32.3369 20.1821C33.3041 20.2729 34.2757 20.0632 35.1193 19.5816C35.963 19.1 36.6374 18.3699 37.0508 17.491C37.4641 16.612 37.5962 15.627 37.429 14.6702C37.2619 13.7134 36.8037 12.8315 36.1167 12.1447C35.4298 11.458 34.5477 10.9997 33.5908 10.8326C32.6338 10.6655 31.6487 10.7976 30.7695 11.2108C29.8904 11.6241 29.1602 12.2985 28.6785 13.1419C28.1967 13.9853 27.987 14.9568 28.0779 15.9238L28.0548 15.8994C28.1232 16.7078 28.0143 17.5214 27.7358 18.2834C27.4573 19.0453 27.0156 19.7373 26.4419 20.3111C25.8681 20.8846 25.176 21.3262 24.4139 21.6047C23.6517 21.8832 22.838 21.992 22.0295 21.9236L22.0526 21.948C21.3655 21.8788 20.6714 21.9632 20.0209 22.1949C19.3703 22.4266 18.7794 22.8 18.2908 23.2881C17.8023 23.7762 17.4284 24.3668 17.196 25.0171C16.9638 25.6674 16.879 26.361 16.9476 27.0482L16.9245 27.0251C16.9926 27.8333 16.8833 28.6467 16.6047 29.4086C16.3259 30.1702 15.8843 30.8621 15.3106 31.4357C14.7369 32.0092 14.045 32.4507 13.2831 32.7294C12.5212 33.0081 11.7077 33.1173 10.8992 33.0493L10.9223 33.0724C9.95516 32.9815 8.9835 33.1912 8.1399 33.6728C7.2963 34.1545 6.62183 34.8845 6.20849 35.7635C5.79514 36.6425 5.66303 37.6275 5.83019 38.5842C5.99736 39.541 6.45566 40.4229 7.14256 41.1097C7.82948 41.7965 8.71155 42.2547 9.6685 42.4218C10.6255 42.5889 11.6107 42.4568 12.4898 42.0436C13.3689 41.6303 14.0991 40.956 14.5808 40.1126C15.0625 39.269 15.2723 38.2976 15.1814 37.3306L15.2058 37.3537C15.1375 36.5453 15.2466 35.7319 15.5253 34.97C15.8038 34.2081 16.2455 33.5163 16.8192 32.9426C17.3929 32.3691 18.0849 31.9274 18.8469 31.649C19.609 31.3703 20.4225 31.2612 21.2311 31.3295Z" fill="#9D9FA2"/>
<path d="M12.6302 28.7546C13.1167 28.2653 13.4892 27.6747 13.7211 27.025C13.9529 26.3752 14.0385 25.6822 13.9716 24.9956L13.9959 25.0187C13.9277 24.2101 14.0367 23.3963 14.3155 22.6343C14.5943 21.8722 15.0362 21.1802 15.6102 20.6065C16.1843 20.0329 16.8765 19.5914 17.6389 19.313C18.4012 19.0345 19.2151 18.9258 20.0238 18.9945L19.9994 18.9714C20.9663 19.0619 21.9376 18.8521 22.7808 18.3705C23.624 17.889 24.298 17.1591 24.7112 16.2804C25.1243 15.4017 25.2562 14.4171 25.0891 13.4606C24.922 12.5042 24.4637 11.6226 23.7771 10.9361C23.0905 10.2496 22.2087 9.79152 21.2521 9.6244C20.2956 9.45727 19.3106 9.58922 18.4319 10.0022C17.553 10.4153 16.823 11.0893 16.3414 11.9323C15.8596 12.7754 15.6498 13.7464 15.7404 14.7131L15.7173 14.69C15.7856 15.4983 15.6765 16.3118 15.3978 17.0737C15.1191 17.8356 14.6776 18.5275 14.1039 19.1011C13.5301 19.6747 12.8381 20.1162 12.0761 20.3948C11.3141 20.6734 10.5005 20.7825 9.69198 20.7142L9.71509 20.7373C8.92511 20.6665 8.13003 20.7962 7.40352 21.1144C6.67702 21.4325 6.04259 21.9289 5.55904 22.5575C5.07549 23.186 4.75846 23.9265 4.63732 24.7101C4.51618 25.4939 4.59485 26.2955 4.86604 27.0406C5.13723 27.7859 5.59219 28.4505 6.18872 28.9731C6.78526 29.4959 7.50408 29.8594 8.27859 30.0304C9.05309 30.2012 9.85821 30.1739 10.6194 29.9509C11.3805 29.7279 12.073 29.3164 12.6327 28.7546H12.6302Z" fill="#9D9FA2"/>
<path d="M169.102 17.4474C168.594 17.4474 168.173 17.4102 167.838 17.3358C167.516 17.2615 167.25 17.1314 167.039 16.9455C166.841 16.7596 166.698 16.5056 166.612 16.1834C166.537 15.8613 166.5 15.4461 166.5 14.9381C166.5 14.43 166.537 14.0149 166.612 13.6927C166.698 13.3582 166.841 13.0918 167.039 12.8935C167.25 12.6952 167.516 12.5589 167.838 12.4846C168.173 12.4102 168.594 12.373 169.102 12.373C169.61 12.373 170.025 12.4102 170.348 12.4846C170.682 12.5589 170.949 12.6952 171.147 12.8935C171.345 13.0918 171.481 13.3582 171.556 13.6927C171.63 14.0149 171.667 14.43 171.667 14.9381C171.667 15.4461 171.63 15.8613 171.556 16.1834C171.481 16.5056 171.345 16.7596 171.147 16.9455C170.949 17.1314 170.682 17.2615 170.348 17.3358C170.025 17.4102 169.61 17.4474 169.102 17.4474ZM166.89 20.7745H171.314V40.384H166.89V20.7745Z" fill="#9D9FA2"/>
<path d="M143.396 20.7747H147.802V34.1389C147.802 34.6593 147.833 35.0992 147.895 35.4586C147.969 35.8179 148.118 36.1153 148.341 36.3508C148.564 36.5738 148.886 36.7411 149.307 36.8526C149.729 36.9518 150.292 37.0013 150.999 37.0013C151.742 37.0013 152.417 36.9641 153.025 36.8898C153.632 36.8031 154.152 36.7101 154.586 36.611C155.094 36.4871 155.553 36.3508 155.961 36.2021V20.7747H160.367V40.3842H157.132L156.612 38.9344C155.918 39.3185 155.168 39.6593 154.363 39.9567C153.669 40.2045 152.864 40.4338 151.947 40.6444C151.042 40.8551 150.082 40.9604 149.066 40.9604C147.145 40.9604 145.72 40.4523 144.791 39.4362C143.861 38.4078 143.396 36.8093 143.396 34.6407V20.7747Z" fill="#9D9FA2"/>
<path d="M123.211 36.6107C123.756 36.7347 124.363 36.8462 125.032 36.9453C125.602 37.0321 126.272 37.1064 127.04 37.1684C127.821 37.2303 128.676 37.2613 129.605 37.2613C130.621 37.2613 131.426 37.2241 132.021 37.1498C132.616 37.0754 133.062 36.9515 133.36 36.778C133.669 36.5922 133.868 36.3443 133.954 36.0345C134.041 35.7248 134.084 35.3344 134.084 34.8635C134.084 34.6157 134.066 34.3927 134.029 34.1944C134.004 33.9837 133.93 33.7979 133.806 33.6368C133.694 33.4633 133.521 33.3208 133.285 33.2093C133.062 33.0854 132.759 32.9924 132.374 32.9305L128.267 32.1684C127.325 32.0073 126.532 31.7905 125.888 31.5178C125.243 31.2452 124.723 30.8859 124.326 30.4398C123.942 29.9813 123.663 29.4237 123.49 28.7669C123.329 28.0978 123.248 27.2861 123.248 26.332C123.248 24.275 123.93 22.7447 125.293 21.741C126.668 20.7248 128.626 20.2168 131.166 20.2168C132.058 20.2168 132.876 20.2726 133.62 20.3841C134.376 20.4832 135.032 20.6009 135.59 20.7372C136.234 20.8859 136.823 21.0532 137.356 21.2391V24.3989C136.761 24.2998 136.141 24.2131 135.497 24.1387C134.939 24.0767 134.314 24.0148 133.62 23.9528C132.938 23.8909 132.244 23.8599 131.538 23.8599C130.733 23.8599 130.063 23.8971 129.531 23.9714C128.998 24.0334 128.576 24.1449 128.267 24.306C127.957 24.4671 127.74 24.6777 127.616 24.938C127.492 25.1858 127.43 25.5018 127.43 25.8859C127.43 26.1833 127.455 26.4497 127.505 26.6852C127.554 26.9206 127.659 27.1312 127.821 27.3171C127.982 27.503 128.205 27.6641 128.49 27.8004C128.775 27.9367 129.159 28.0482 129.642 28.135L133.899 28.9342C134.729 29.0953 135.429 29.306 135.999 29.5662C136.581 29.8264 137.052 30.1796 137.412 30.6257C137.771 31.0717 138.031 31.6418 138.192 32.3357C138.353 33.0172 138.434 33.8598 138.434 34.8635C138.434 35.8177 138.335 36.6727 138.136 37.4286C137.951 38.1845 137.566 38.8226 136.984 39.3431C136.402 39.8635 135.578 40.26 134.512 40.5326C133.446 40.8177 132.04 40.9602 130.293 40.9602C129.326 40.9602 128.415 40.892 127.56 40.7557C126.705 40.6318 125.956 40.4893 125.311 40.3282C124.555 40.1423 123.855 39.9317 123.211 39.6962V36.6107Z" fill="#9D9FA2"/>
<path d="M103.955 36.6107C104.5 36.7347 105.107 36.8462 105.777 36.9453C106.347 37.0321 107.016 37.1064 107.784 37.1684C108.565 37.2303 109.42 37.2613 110.349 37.2613C111.365 37.2613 112.171 37.2241 112.765 37.1498C113.36 37.0754 113.806 36.9515 114.104 36.778C114.414 36.5922 114.612 36.3443 114.699 36.0345C114.785 35.7248 114.829 35.3344 114.829 34.8635C114.829 34.6157 114.81 34.3927 114.773 34.1944C114.748 33.9837 114.674 33.7979 114.55 33.6368C114.438 33.4633 114.265 33.3208 114.029 33.2093C113.806 33.0854 113.503 32.9924 113.119 32.9305L109.011 32.1684C108.069 32.0073 107.276 31.7905 106.632 31.5178C105.987 31.2452 105.467 30.8859 105.07 30.4398C104.686 29.9813 104.407 29.4237 104.234 28.7669C104.073 28.0978 103.992 27.2861 103.992 26.332C103.992 24.275 104.674 22.7447 106.037 21.741C107.412 20.7248 109.37 20.2168 111.91 20.2168C112.803 20.2168 113.62 20.2726 114.364 20.3841C115.12 20.4832 115.777 20.6009 116.334 20.7372C116.979 20.8859 117.567 21.0532 118.1 21.2391V24.3989C117.505 24.2998 116.886 24.2131 116.241 24.1387C115.684 24.0767 115.058 24.0148 114.364 23.9528C113.682 23.8909 112.988 23.8599 112.282 23.8599C111.477 23.8599 110.808 23.8971 110.275 23.9714C109.742 24.0334 109.321 24.1449 109.011 24.306C108.701 24.4671 108.484 24.6777 108.36 24.938C108.236 25.1858 108.174 25.5018 108.174 25.8859C108.174 26.1833 108.199 26.4497 108.249 26.6852C108.298 26.9206 108.404 27.1312 108.565 27.3171C108.726 27.503 108.949 27.6641 109.234 27.8004C109.519 27.9367 109.903 28.0482 110.386 28.135L114.643 28.9342C115.473 29.0953 116.173 29.306 116.743 29.5662C117.326 29.8264 117.796 30.1796 118.156 30.6257C118.515 31.0717 118.775 31.6418 118.936 32.3357C119.097 33.0172 119.178 33.8598 119.178 34.8635C119.178 35.8177 119.079 36.6727 118.881 37.4286C118.695 38.1845 118.311 38.8226 117.728 39.3431C117.146 39.8635 116.322 40.26 115.256 40.5326C114.19 40.8177 112.784 40.9602 111.037 40.9602C110.07 40.9602 109.16 40.892 108.304 40.7557C107.449 40.6318 106.7 40.4893 106.055 40.3282C105.3 40.1423 104.599 39.9317 103.955 39.6962V36.6107Z" fill="#9D9FA2"/>
<path d="M81.9668 34.8262C81.9668 33.7109 82.1279 32.7692 82.4501 32.0009C82.7846 31.2326 83.2307 30.6131 83.7883 30.1422C84.3584 29.6713 85.0213 29.3305 85.7772 29.1199C86.5455 28.9092 87.3695 28.8039 88.2493 28.8039C89.1415 28.8039 89.9469 28.8535 90.6656 28.9526C91.3967 29.0517 92.0287 29.1633 92.5615 29.2872C93.1687 29.4235 93.7201 29.5784 94.2158 29.7519V27.9303C94.2158 27.4718 94.1972 27.0877 94.16 26.7779C94.1352 26.4557 94.0857 26.1769 94.0113 25.9415C93.937 25.706 93.8317 25.5078 93.6953 25.3467C93.5714 25.1856 93.4165 25.0307 93.2307 24.882C92.8341 24.597 92.2889 24.3925 91.595 24.2686C90.9011 24.1447 89.9965 24.0827 88.8812 24.0827C88.1749 24.0827 87.4872 24.1075 86.8181 24.1571C86.1613 24.1943 85.5727 24.2438 85.0523 24.3058C84.4451 24.3678 83.8689 24.4359 83.3237 24.5103V21.4248C83.8193 21.2265 84.4327 21.0468 85.1638 20.8857C85.7834 20.7494 86.5578 20.6255 87.4872 20.514C88.4166 20.3901 89.5194 20.3281 90.7957 20.3281C91.6507 20.3281 92.4066 20.3653 93.0634 20.4396C93.7325 20.5016 94.3211 20.6131 94.8292 20.7742C95.3372 20.9353 95.7833 21.146 96.1674 21.4062C96.564 21.6664 96.9171 21.9886 97.2269 22.3727C97.4871 22.6949 97.704 23.0357 97.8775 23.395C98.051 23.7544 98.1935 24.1757 98.305 24.659C98.4165 25.1422 98.4909 25.6998 98.528 26.3318C98.5776 26.9514 98.6024 27.6763 98.6024 28.5065V40.3838H94.8663L94.5318 38.934C93.9865 39.3181 93.3856 39.6589 92.7288 39.9563C92.1588 40.2041 91.4897 40.4333 90.7214 40.644C89.9655 40.8546 89.1291 40.96 88.2121 40.96C87.0969 40.96 86.1427 40.8484 85.3497 40.6254C84.5566 40.4023 83.9061 40.0492 83.398 39.5659C82.9024 39.0827 82.5368 38.4507 82.3014 37.67C82.0783 36.8894 81.9668 35.9414 81.9668 34.8262ZM86.4835 34.8262C86.4835 35.3714 86.5516 35.8051 86.688 36.1273C86.8243 36.4495 87.0225 36.6973 87.2827 36.8708C87.543 37.0319 87.859 37.1372 88.2307 37.1868C88.6148 37.2363 89.0485 37.2611 89.5318 37.2611C90.1638 37.2611 90.7586 37.2053 91.3162 37.0938C91.8862 36.9699 92.388 36.8398 92.8217 36.7035C93.3174 36.5424 93.7821 36.3565 94.2158 36.1459V32.7444C93.8193 32.6701 93.3918 32.6019 92.9333 32.5399C92.5367 32.478 92.0845 32.4284 91.5764 32.3912C91.0807 32.3417 90.5541 32.3169 89.9965 32.3169C89.3769 32.3169 88.8441 32.3479 88.398 32.4098C87.9643 32.4594 87.6049 32.5771 87.3199 32.763C87.0349 32.9365 86.8243 33.1905 86.688 33.5251C86.5516 33.8472 86.4835 34.2809 86.4835 34.8262Z" fill="#9D9FA2"/>
<path d="M50.7578 13.8599H58.4901L63.3971 29.8449H63.5458L68.6201 13.8599H76.2223V40.3839H71.78V18.0048H71.6685L71.1666 19.6777C71.0303 20.1485 70.8816 20.6442 70.7205 21.1646C70.5594 21.6727 70.4169 22.1126 70.293 22.4843L66.8729 33.1906H60.2001L56.7057 22.41C56.5818 22.0382 56.4393 21.6045 56.2782 21.1089C56.1171 20.6008 55.9684 20.1176 55.8321 19.6591C55.671 19.1262 55.5038 18.5748 55.3303 18.0048H55.2187V40.3839H50.7578V13.8599Z" fill="#9D9FA2"/>
</g>
<defs>
<clipPath id="clip0_2983_4490">
<rect width="175.084" height="53.3333" fill="white" transform="translate(0.582031)"/>
</clipPath>
</defs>
</svg>
