<svg width="152" height="54" viewBox="0 0 152 54" fill="none" xmlns="http://www.w3.org/2000/svg">
<g clip-path="url(#clip0_2983_4532)">
<g clip-path="url(#clip1_2983_4532)">
<path fill-rule="evenodd" clip-rule="evenodd" d="M16.1418 10.1165C14.2753 10.1165 12.4853 10.858 11.1655 12.1778L4.79688 18.5466V21.4619C4.79688 23.5215 5.68154 25.3745 7.09159 26.6615C5.68154 27.9485 4.79688 29.8015 4.79688 31.8611V34.7763L11.1655 41.1452C12.4853 42.4651 14.2753 43.2065 16.1418 43.2065C18.2014 43.2065 20.0543 42.3219 21.3412 40.9117C22.6282 42.3219 24.4811 43.2065 26.5407 43.2065C28.4072 43.2065 30.1972 42.4651 31.517 41.1452L37.8856 34.7763V31.8611C37.8856 29.8015 37.001 27.9485 35.5909 26.6615C37.001 25.3745 37.8856 23.5215 37.8856 21.4619V18.5466L31.517 12.1778C30.1972 10.858 28.4072 10.1165 26.5407 10.1165C24.4811 10.1165 22.6282 11.0011 21.3412 12.4113C20.0543 11.0011 18.2014 10.1165 16.1418 10.1165ZM26.105 26.6615C26.0257 26.5891 25.9479 26.5147 25.8716 26.4385L21.3412 21.9079L16.8109 26.4385C16.7346 26.5147 16.6568 26.5891 16.5775 26.6615C16.6568 26.7339 16.7346 26.8082 16.8109 26.8845L21.3412 31.4151L25.8716 26.8845C25.9479 26.8082 26.0257 26.7339 26.105 26.6615ZM23.1795 34.7763V36.1686C23.1795 38.025 24.6844 39.5299 26.5407 39.5299C27.4321 39.5299 28.287 39.1758 28.9173 38.5454L34.2091 33.2534V31.8611C34.2091 30.0048 32.7043 28.4998 30.848 28.4998C29.9566 28.4998 29.1016 28.854 28.4713 29.4843L23.1795 34.7763ZM19.503 34.7763L14.2112 29.4843C13.5809 28.854 12.726 28.4998 11.8345 28.4998C9.97823 28.4998 8.4734 30.0048 8.4734 31.8611V33.2534L13.7652 38.5454C14.3955 39.1758 15.2504 39.5299 16.1418 39.5299C17.9981 39.5299 19.503 38.025 19.503 36.1686V34.7763ZM19.503 17.1544V18.5466L14.2112 23.8387C13.5809 24.469 12.726 24.8232 11.8345 24.8232C9.97823 24.8232 8.4734 23.3182 8.4734 21.4619V20.0696L13.7652 14.7776C14.3955 14.1473 15.2504 13.7931 16.1418 13.7931C17.9981 13.7931 19.503 15.298 19.503 17.1544ZM28.4713 23.8387L23.1795 18.5466V17.1544C23.1795 15.298 24.6844 13.7931 26.5407 13.7931C27.4321 13.7931 28.287 14.1473 28.9173 14.7776L34.2091 20.0696V21.4619C34.2091 23.3182 32.7043 24.8232 30.848 24.8232C29.9566 24.8232 29.1016 24.469 28.4713 23.8387Z" fill="#9D9FA2"/>
</g>
<path d="M134.945 40.1946C131.654 40.1946 129.132 39.4139 127.378 37.8525C125.625 36.2911 124.748 34.009 124.748 31.0063V23.2954C124.748 20.2927 125.625 18.0107 127.378 16.4493C129.132 14.8879 131.654 14.1072 134.945 14.1072C138.236 14.1072 140.746 14.8879 142.476 16.4493C144.23 18.0107 145.106 20.2927 145.106 23.2954V31.0063C145.106 34.009 144.23 36.2911 142.476 37.8525C140.746 39.4139 138.236 40.1946 134.945 40.1946ZM134.945 36.8436C136.843 36.8436 138.296 36.3511 139.305 35.3663C140.338 34.3574 140.855 32.9041 140.855 31.0063V23.2954C140.855 21.3977 140.338 19.9564 139.305 18.9715C138.296 17.9626 136.843 17.4582 134.945 17.4582C133.023 17.4582 131.546 17.9626 130.513 18.9715C129.504 19.9564 129 21.3977 129 23.2954V31.0063C129 32.9041 129.504 34.3574 130.513 35.3663C131.546 36.3511 133.023 36.8436 134.945 36.8436Z" fill="#9D9FA2"/>
<path d="M118.582 14.5396V34.5375C118.582 36.2671 118.222 37.5762 117.501 38.465C116.804 39.3298 115.687 39.7622 114.15 39.7622H111.159L102.259 21.2055V39.7622H98.2598V14.5396H103.124L113.393 36.1229H113.574C113.958 36.1229 114.222 35.9668 114.366 35.6545C114.51 35.3182 114.582 34.7417 114.582 33.925V14.5396H118.582Z" fill="#9D9FA2"/>
<path d="M86.6432 33.1323H76.302L74.3202 39.7622H70.0684L76.374 19.3319C76.7824 17.9867 77.2028 16.9417 77.6352 16.1971C78.0916 15.4524 78.62 14.9239 79.2206 14.6116C79.8211 14.2753 80.5778 14.1072 81.4906 14.1072C82.3794 14.1072 83.1241 14.2753 83.7246 14.6116C84.3252 14.9239 84.8536 15.4524 85.31 16.1971C85.7665 16.9417 86.1988 17.9867 86.6072 19.3319L92.8768 39.7622H88.625L86.6432 33.1323ZM85.7064 29.9614L82.5716 19.4039C82.4275 18.9235 82.2713 18.5752 82.1032 18.359C81.959 18.1428 81.7549 18.0347 81.4906 18.0347C81.2264 18.0347 81.0102 18.1428 80.842 18.359C80.6739 18.5752 80.5177 18.9235 80.3736 19.4039L77.2388 29.9614H85.7064Z" fill="#9D9FA2"/>
<path d="M58.6198 17.8906H50.8008V14.5396H70.6546V17.8906H62.8716V39.7622H58.6198V17.8906Z" fill="#9D9FA2"/>
</g>
<defs>
<clipPath id="clip0_2983_4532">
<rect width="151.021" height="53.3333" fill="white" transform="translate(0.3125)"/>
</clipPath>
<clipPath id="clip1_2983_4532">
<rect width="33.0887" height="33.9174" fill="white" transform="translate(4.79688 9.6936)"/>
</clipPath>
</defs>
</svg>
