<svg width="25" height="24" viewBox="0 0 25 24" fill="none" xmlns="http://www.w3.org/2000/svg">
<g id="Icon/dit">
<path id="Union" fill-rule="evenodd" clip-rule="evenodd" d="M16.666 3.67139C15.6507 3.67139 14.6769 4.07474 13.9589 4.79271L3.45891 15.2927C3.27137 15.4802 3.16602 15.7346 3.16602 15.9998V19.9998C3.16602 20.5521 3.61373 20.9998 4.16602 20.9998H8.16602C8.43123 20.9998 8.68559 20.8945 8.87312 20.7069L18.3571 11.2229C18.3625 11.2178 18.3678 11.2126 18.3731 11.2073C18.3784 11.202 18.3836 11.1966 18.3888 11.1912L19.3731 10.2069C20.0911 9.48895 20.4944 8.51518 20.4944 7.49981C20.4944 6.48445 20.0911 5.51068 19.3731 4.79271C18.6552 4.07474 17.6814 3.67139 16.666 3.67139ZM17.6658 9.08578L17.9589 8.79271C18.3018 8.44981 18.4944 7.98474 18.4944 7.49981C18.4944 7.01488 18.3018 6.54982 17.9589 6.20692C17.616 5.86402 17.1509 5.67139 16.666 5.67139C16.1811 5.67139 15.716 5.86402 15.3731 6.20692L15.0801 6.49999L17.6658 9.08578ZM13.6658 7.9142L5.16602 16.414V18.9998H7.7518L16.2516 10.5L13.6658 7.9142Z" fill="#BDBDBD"/>
</g>
</svg>
