<svg width="47" height="47" viewBox="0 0 47 47" fill="none" xmlns="http://www.w3.org/2000/svg">
<g id="Branding">
<path id="Union" fill-rule="evenodd" clip-rule="evenodd" d="M15.6025 4.07672L15.2865 3.96818L15.2864 3.96816C14.9705 3.85964 14.6545 3.75112 14.4439 3.85964L11.916 3.09993L14.3386 2.01459C14.9705 1.68898 15.6025 1.4719 16.2344 1.25484L16.5504 1.14629L16.8664 1.25484L17.8143 1.58046C20.8688 2.44873 24.0286 2.23166 27.1885 1.03779C27.3465 0.98352 27.5045 0.902114 27.6625 0.820707C27.8204 0.739299 27.9784 0.657892 28.1364 0.603625L28.4524 0.495117H28.7684C29.5057 0.603651 30.1377 0.820719 30.7696 1.03779L32.9815 1.7975L29.7163 3.42551C27.0832 4.51085 24.45 5.16206 21.7115 5.16206C19.0783 5.16206 16.9717 4.61939 15.6025 4.07672ZM6.6508 11.3488C7.15882 11.0871 7.73491 10.8955 8.26963 10.7176L8.26986 10.7175C8.40025 10.6742 8.52817 10.6316 8.65205 10.5891C11.4959 9.82933 14.5504 9.93787 17.6049 11.1317C19.6061 11.8915 21.6073 12.2171 23.8192 12.2171C28.2429 12.2171 32.6666 10.5891 36.7744 7.44159L38.3543 6.13917L38.8809 5.70504L37.933 4.94529C37.617 4.61969 37.1957 4.2941 36.7744 4.07703L36.1424 3.6429L35.6158 4.07703C35.5105 4.1313 35.4315 4.2127 35.3525 4.2941C35.2735 4.3755 35.1945 4.4569 35.0892 4.51116C29.5068 8.85252 23.9245 10.0464 18.6581 7.98426C14.8664 6.57332 11.0746 6.24772 7.28277 7.44159C6.96679 7.55013 6.65081 7.65865 6.2295 7.76718L6.01887 7.87572L5.70286 8.20131C5.70286 8.26839 5.66264 8.29402 5.60704 8.32943L5.60703 8.32944C5.57268 8.35132 5.53246 8.37694 5.49223 8.41839C5.28158 8.74399 5.04459 9.04246 4.80759 9.34094C4.5706 9.63941 4.33361 9.93788 4.12296 10.2635L2.12174 13.411L5.3869 11.6744C5.80409 11.6744 6.15517 11.5382 6.44016 11.4276L6.44019 11.4276C6.51494 11.3986 6.58515 11.3714 6.6508 11.3488ZM10.9681 17.6433C8.01897 18.5116 5.28048 20.1396 2.85796 22.7444C2.64201 22.8928 2.47526 23.0918 2.32408 23.2722C2.25404 23.3558 2.18735 23.4354 2.12065 23.5041L0.330078 25.4578L0.435412 22.7444C0.489954 22.4072 0.516256 22.0409 0.543565 21.6605C0.568993 21.3064 0.595294 20.9401 0.646079 20.5737V20.2481L0.856714 20.0311L1.38335 19.4884L3.59523 17.6433C5.70177 16.2324 7.80833 15.147 10.0202 14.4958C13.496 13.519 17.2878 13.7361 20.9742 15.147C28.7684 18.186 35.6147 13.7361 40.0385 9.39473L40.4598 8.9606L41.1971 8.20085L41.829 9.06914C41.948 9.23261 42.0521 9.39608 42.1524 9.55376C42.3186 9.81483 42.4746 10.06 42.6716 10.263L43.0929 10.9142L42.5663 11.3484L41.1971 12.7593C37.6159 15.9068 29.4004 21.7676 19.921 18.186C16.8665 16.9921 13.812 16.8836 10.9681 17.6433ZM13.0741 24.6984C15.9179 23.9387 18.9724 24.0472 22.0269 25.2411C25.3974 26.5435 34.0342 28.3886 43.7243 19.3803L45.3042 17.7522L45.4096 17.6437L45.8309 17.2096L45.6202 16.6669C45.5149 16.2328 45.3042 15.6901 45.0936 15.1475L45.0936 15.1474L44.5669 13.6279L43.5136 14.7133C43.4456 14.8534 43.3337 14.9484 43.2062 15.0565C43.1363 15.1158 43.0616 15.179 42.987 15.2559C38.3526 20.14 31.1904 25.1326 22.9748 22.0936C19.2884 20.6827 15.4966 20.4656 12.0208 21.4424C8.65034 22.4192 5.70117 24.2643 2.96266 26.8691V26.7605L1.38276 28.4971C1.38276 28.5642 1.34253 28.5898 1.28693 28.6252C1.25257 28.6471 1.21235 28.6727 1.17212 28.7142L0.85612 29.0398L0.961453 29.4739C1.01412 29.7452 1.09311 30.0166 1.1721 30.2879C1.2511 30.5592 1.33009 30.8306 1.38276 31.1019L2.01473 32.8385L3.068 31.4275C3.12066 31.319 3.19966 31.2376 3.27865 31.1562C3.35764 31.0748 3.43664 30.9934 3.4893 30.8849L3.67235 30.7141C5.86889 28.664 8.87356 25.8597 13.0741 24.6984ZM27.5055 36.4205C23.819 35.0095 20.0272 34.7925 16.5514 35.7693C14.1289 36.4205 11.8117 37.7229 9.70515 39.3509L8.23055 40.6533L7.80925 41.0875L8.75718 41.9557C8.82228 41.9557 8.84715 41.9972 8.88152 42.0545C8.90275 42.0899 8.92762 42.1313 8.96785 42.1728C9.12205 42.3317 9.27625 42.4324 9.47177 42.5601L9.47189 42.5602C9.54343 42.607 9.62052 42.6573 9.70515 42.7155L10.3371 43.1496L10.9691 42.6069C11.0744 42.4984 11.285 42.2813 11.4957 42.1728C13.3916 40.5448 15.4981 39.4594 17.71 38.9168C20.5538 38.157 23.6083 38.2656 26.6628 39.4594C29.1907 40.4363 34.3517 41.6301 40.566 38.9168L40.7767 38.8082L41.0927 38.4826C41.0927 38.4156 41.1329 38.3899 41.1885 38.3545C41.2229 38.3326 41.2631 38.307 41.3033 38.2656C41.83 37.6144 42.3566 36.9632 42.7779 36.2034L44.8844 32.8389L41.514 34.7925C36.5636 37.6144 32.0345 38.157 27.5055 36.4205ZM30.5583 43.8005C30.4003 43.7462 30.2687 43.692 30.137 43.6377L30.137 43.6377C30.0053 43.5834 29.8737 43.5291 29.7157 43.4749C26.0292 42.0639 22.2374 41.8469 18.7616 42.8237L18.7613 42.8238C18.0241 43.0408 17.287 43.2579 16.5498 43.5834L14.0219 44.7773L13.39 45.1029L15.4965 45.8626L17.3924 46.5138L17.7084 46.6224L18.0244 46.5138C18.1297 46.4777 18.235 46.4294 18.3404 46.3812C18.551 46.2847 18.7617 46.1882 18.9723 46.1882C19.183 46.1882 19.3936 46.0797 19.6043 45.9712C22.1321 45.32 24.8706 45.32 27.8198 46.2968C27.9778 46.351 28.1094 46.4053 28.2411 46.4596L28.2411 46.4596C28.3728 46.5138 28.5044 46.5681 28.6624 46.6224L29.1891 46.8394L29.505 46.7309C29.6172 46.6979 29.7318 46.6648 29.8478 46.6314C30.4939 46.4453 31.1811 46.2472 31.7169 45.9712L34.6661 44.8858L31.6116 44.1261C31.4536 44.0718 31.2692 44.0175 31.0849 43.9633C30.9006 43.909 30.7163 43.8548 30.5583 43.8005ZM45.0949 22.9623L46.6748 21.3343L46.5695 23.8306C46.5695 24.1562 46.5432 24.5089 46.5168 24.8617C46.4905 25.2144 46.4642 25.5671 46.4642 25.8927V26.2183L46.1482 26.544C46.0428 26.6525 45.9375 26.7339 45.8322 26.8153C45.7269 26.8967 45.6216 26.9781 45.5162 27.0866C41.9351 30.2341 37.09 33.056 32.245 33.5987C29.5065 33.9243 26.768 33.5986 24.1348 32.6218C21.0803 31.428 18.0258 31.3194 15.182 32.0792C12.0222 32.9474 9.28364 34.684 6.75579 37.5059L6.33449 37.94L5.59718 38.9168L4.96525 37.94C4.75459 37.5059 4.54392 37.1803 4.22794 36.7461L3.80664 36.0949L4.22794 35.5523L5.59718 34.0328C8.23037 31.428 11.1796 29.6914 14.4447 28.7146C17.9205 27.7378 21.7123 27.9549 25.3987 29.3658C33.1929 32.4048 40.1445 27.8464 44.463 23.6135L45.0949 22.9623Z" fill="white"/>
</g>
</svg>
