<svg width="131" height="81" viewBox="0 0 131 81" fill="none" xmlns="http://www.w3.org/2000/svg">
<g id="Group">
<g id="Group_2">
<path id="Vector" d="M79.2926 17.9666C79.4926 17.9008 79.6925 17.7784 79.8925 17.7808C83.6516 17.8184 87.4131 17.7808 91.1651 17.9666C92.3743 18.0254 93.6351 18.5241 94.7314 19.0911C96.5192 20.0156 97.3778 21.6622 97.2837 23.6594C97.1872 25.6895 96.0463 27.0727 94.1903 27.8725C94.068 27.9267 93.9433 27.9784 93.7081 28.0772C93.9974 28.1972 94.1903 28.2983 94.3926 28.3595C96.785 29.0817 98.0906 30.5919 98.2599 32.8361C98.4105 34.8568 97.1355 37.0916 95.1242 37.9361C94.0115 38.4042 92.7671 38.7571 91.5721 38.7923C87.6436 38.91 83.7104 38.8606 79.7796 38.87C79.629 38.87 79.4785 38.8018 79.2832 38.5101C79.5867 38.4301 79.8878 38.3077 80.1959 38.2795C81.6309 38.1478 82.2943 37.5926 82.306 36.1671C82.346 30.9401 82.346 25.7131 82.3013 20.486C82.2895 19.0534 81.645 18.5077 80.1912 18.3595C79.9019 18.3289 79.6149 18.296 79.3255 18.263C79.3138 18.1642 79.3044 18.0654 79.2926 17.9666ZM85.3759 37.3409C87.4413 37.8043 89.3844 38.0161 91.351 37.4562C93.2258 36.9222 94.4938 35.4919 94.6349 33.7112C94.7831 31.8081 93.741 30.1144 91.9273 29.3146C90.0172 28.4724 88.0059 28.5218 85.9946 28.6841C85.7734 28.7029 85.4065 29.0746 85.4041 29.2863C85.3618 31.9422 85.3759 34.598 85.3759 37.3409ZM85.3712 23.2619C85.3712 24.3534 85.4018 25.4449 85.3594 26.534C85.3359 27.1598 85.5758 27.395 86.1804 27.3856C87.5424 27.3644 88.9092 27.4421 90.2642 27.3433C92.2167 27.1998 93.5669 25.9836 93.9433 24.2005C94.3197 22.4103 93.5081 20.6554 91.8261 19.7239C90.0995 18.7664 88.234 18.8158 86.3474 19.0229C85.6041 19.1052 85.2983 19.4086 85.3547 20.1967C85.4277 21.2129 85.3712 22.2386 85.3712 23.2619Z" fill="white"/>
<path id="Vector_2" d="M39.6217 34.9229C36.3331 34.9158 33.8725 34.116 31.9082 32.3823C27.2034 28.2233 22.3552 29.5782 18.2785 33.0621C18.0197 33.2832 17.7962 33.5514 17.521 33.7514C16.78 34.2854 15.7896 34.1866 15.1827 33.5491C14.564 32.8998 14.4558 31.8836 15.0933 31.2202C19.5935 26.546 26.8694 24.0313 32.9668 28.7384C34.8111 30.1616 36.6906 31.4249 39.1442 31.3449C42.1858 31.2461 44.6017 29.7711 46.7659 27.7904C47.3423 27.2635 47.9163 26.7977 48.7584 27.0541C50.0805 27.4587 50.5674 29.009 49.5865 29.997C46.6742 32.9327 43.2397 34.8052 39.6217 34.9229Z" fill="white"/>
<path id="Vector_3" d="M39.7462 25.2357C36.2529 25.1228 33.7994 24.3371 31.821 22.5963C27.3868 18.6937 22.689 19.7617 18.7323 22.9539C18.3348 23.2762 17.9913 23.6643 17.5891 23.9795C16.8975 24.5206 15.8412 24.45 15.2367 23.8572C14.5615 23.1986 14.4368 22.14 15.1143 21.4531C19.7321 16.7742 26.9727 14.1936 33.2583 19.2207C35.1379 20.7238 37.1421 21.8224 39.6098 21.6036C42.4186 21.3566 44.7027 19.9476 46.7517 18.1009C47.0739 17.8092 47.4291 17.4822 47.8267 17.3599C48.6218 17.1129 49.3416 17.374 49.7886 18.0892C50.2261 18.7878 50.1932 19.5124 49.671 20.1898C47.6103 22.8528 42.3786 25.2969 39.7462 25.2357Z" fill="white"/>
<path id="Vector_4" d="M39.8292 44.6238C37.1452 44.6638 34.701 43.8428 32.7203 42.1161C28.0273 38.0183 23.3225 39.185 19.0905 42.7983C17.7215 43.9675 16.7052 44.1274 15.9148 43.2006C15.1573 42.3114 15.402 41.2575 16.7029 40.1354C19.5422 37.6842 22.7132 35.9929 26.5829 35.9599C29.5258 35.934 32.0569 37.0185 34.2846 38.8557C36.4677 40.6553 38.8953 41.5374 41.7088 40.8694C44.0612 40.3118 46.0113 39.0039 47.7568 37.3596C48.7942 36.3834 50.1703 36.6233 50.7373 37.8183C51.0995 38.5805 50.8925 39.2556 50.3468 39.7873C47.4204 42.6407 44.0494 44.565 39.8292 44.6238Z" fill="white"/>
<path id="Vector_5" d="M118.704 33.6484C118.149 35.2809 117.611 36.9182 117.02 38.5366C116.959 38.706 116.599 38.8612 116.378 38.8612C111.247 38.8754 106.119 38.8683 100.989 38.8612C100.892 38.8612 100.798 38.8048 100.377 38.6731C100.873 38.4778 101.113 38.3202 101.367 38.292C103.219 38.085 103.659 37.6333 103.663 35.7443C103.677 30.9243 103.675 26.1066 103.668 21.2865C103.663 18.8401 103.43 18.5978 100.951 18.3249C100.857 18.3155 100.767 18.2567 100.622 17.965C100.949 17.8991 101.278 17.7791 101.605 17.7791C105.983 17.7674 110.361 17.7697 114.738 17.7697C115.418 17.7697 116.098 17.7697 116.912 17.7697C116.994 19.3317 117.07 20.8137 117.147 22.2934C117.051 22.3381 116.957 22.3828 116.86 22.4275C116.705 22.2157 116.481 22.0275 116.408 21.7923C115.667 19.4117 115.126 18.9812 112.614 18.953C110.671 18.9295 108.728 18.9483 106.731 18.9483C106.731 21.7453 106.731 24.4623 106.731 27.1464C108.796 27.1464 110.803 27.224 112.798 27.1158C113.927 27.0546 114.282 26.0525 114.538 25.0904C114.614 24.8128 114.715 24.5423 114.804 24.267C114.901 24.2882 114.997 24.3094 115.094 24.3305C115.094 26.7135 115.094 29.0965 115.094 31.4795C115.032 31.5147 114.974 31.5524 114.912 31.5877C114.781 31.3618 114.571 31.1478 114.531 30.9078C114.171 28.7436 113.214 28.5037 111.292 28.4308C109.798 28.3766 108.3 28.419 106.67 28.419C106.67 29.9692 106.665 31.43 106.672 32.8909C106.677 34.0859 106.695 35.2833 106.714 36.4783C106.724 37.1628 107.053 37.6215 107.754 37.6239C109.871 37.6262 112.002 37.718 114.103 37.5157C116.02 37.3322 116.846 35.6644 117.754 34.2082C117.931 33.9236 118.196 33.6954 118.422 33.4413C118.514 33.5143 118.61 33.5825 118.704 33.6484Z" fill="white"/>
<path id="Vector_6" d="M64.7439 30.5593C64.7439 20.9522 64.7439 11.345 64.7439 1.73785C64.7439 1.49791 64.6686 1.22503 64.7604 1.02743C64.9345 0.648697 65.1603 0.062945 65.4449 0.0135449C66.0636 -0.0946651 66.153 0.465209 66.1553 0.989792C66.1577 3.24573 66.1718 5.50168 66.1836 7.75997C66.2471 20.8887 66.3059 34.0173 66.3788 47.146C66.4023 51.3168 66.4635 55.4876 66.5058 59.656C66.5082 59.9642 66.5788 60.3171 66.4541 60.5641C66.3247 60.8205 65.9954 61.1263 65.7531 61.1263C65.5414 61.1263 65.1767 60.7452 65.1509 60.5029C65.0662 59.6913 65.0944 58.8656 65.0944 58.0446C65.0921 48.8821 65.0921 39.7195 65.0921 30.5593C64.9721 30.5593 64.8592 30.5593 64.7439 30.5593Z" fill="white"/>
<path id="Vector_7" d="M37.1112 80.8657C36.8595 80.6329 36.5302 80.4423 36.3702 80.1577C35.5892 78.7651 34.8529 77.3489 33.8578 75.9657C33.8578 76.8549 33.9119 77.7488 33.8414 78.6333C33.7849 79.3485 34.1683 80.2565 33.545 80.7999C33.3991 80.7552 33.2533 80.7105 33.1074 80.6658C33.1074 78.3887 33.1074 76.1116 33.1074 73.8368C33.1803 73.7756 33.2509 73.7145 33.3238 73.6533C33.6202 73.9333 34.006 74.1638 34.1942 74.5025C34.954 75.8646 35.6527 77.2619 36.6125 78.6192C36.6125 77.4571 36.6125 76.2927 36.6125 75.1306C36.6125 74.8577 36.5584 74.566 36.6337 74.3167C36.6972 74.112 36.9183 73.9568 37.0688 73.7803C37.1865 73.9474 37.4052 74.1144 37.4076 74.2838C37.4311 76.3962 37.4217 78.511 37.4217 80.6235C37.3159 80.7011 37.2123 80.7834 37.1112 80.8657Z" fill="white"/>
<path id="Vector_8" d="M0 73.7657C1.05152 73.7657 1.9666 73.761 2.88403 73.768C3.54035 73.7728 3.9285 74.1068 3.90262 74.7702C3.86733 75.6217 3.77088 76.4709 3.67914 77.5695C4.19431 78.1647 3.9332 79.1762 3.82263 80.1313C3.7944 80.3641 3.30511 80.6958 3.00635 80.7194C2.03246 80.7946 1.04917 80.7476 0 80.7476C0 78.3952 0 76.1369 0 73.7657ZM0.743357 80.143C1.59963 79.9831 2.42532 80.0231 2.95225 79.6467C3.22278 79.4538 3.18514 78.1999 2.88639 77.9835C2.36651 77.6095 1.53141 77.666 0.743357 77.5295C0.743357 78.4564 0.743357 79.155 0.743357 80.143ZM0.809223 74.4173C0.809223 75.4006 0.809223 76.1134 0.809223 77.0214C1.63256 76.8497 2.4653 76.8967 2.91932 76.5062C3.22042 76.2451 3.21337 75.0101 2.93814 74.829C2.38768 74.4667 1.55964 74.5326 0.809223 74.4173Z" fill="white"/>
<path id="Vector_9" d="M44.6387 73.7636C45.6831 73.7636 46.6029 73.7683 47.5251 73.7613C48.1884 73.7566 48.5625 74.0624 48.5672 74.7375C48.5766 76.4101 48.5836 78.0803 48.5695 79.7528C48.5648 80.3315 48.3108 80.7455 47.6568 80.7479C46.6735 80.7526 45.6902 80.7502 44.641 80.7502C44.6387 78.4002 44.6387 76.1372 44.6387 73.7636ZM45.4597 74.6199C45.4597 76.4265 45.4597 78.1556 45.4597 79.9598C45.8478 79.9787 46.1842 79.9692 46.5159 80.0116C47.4921 80.1386 47.8944 79.7528 47.8026 78.7507C47.7321 77.9697 47.7885 77.1793 47.7885 76.3936C47.7885 74.3917 47.7885 74.3917 45.8078 74.5258C45.7114 74.5305 45.6173 74.5752 45.4597 74.6199Z" fill="white"/>
<path id="Vector_10" d="M11.6472 77.8754C11.6472 78.5646 11.6848 79.2774 11.6284 79.9831C11.6072 80.2443 11.3578 80.4842 11.2143 80.7359C11.0897 80.5077 10.8591 80.2795 10.8568 80.049C10.8286 78.0071 10.8403 75.9653 10.8403 73.794C11.9789 73.794 13.0539 73.754 14.1243 73.8246C14.3524 73.841 14.5571 74.2574 14.7688 74.4927C14.7876 74.5138 14.7829 74.5585 14.7806 74.5915C14.7006 75.5936 14.543 76.5957 14.5618 77.5978C14.5806 78.6235 14.7735 79.6491 14.8888 80.6724C14.7688 80.7265 14.6488 80.7782 14.5312 80.8323C14.3571 80.6371 14.1219 80.4677 14.0255 80.2419C13.9384 80.0396 14.0043 79.7714 14.0043 79.5338C13.9972 77.6425 13.7032 77.4237 11.6472 77.8754ZM11.6872 77.1297C12.534 76.9368 13.4068 76.9744 13.8537 76.5557C14.1642 76.2664 14.1313 75.0125 13.8208 74.7891C13.3103 74.4244 12.4494 74.5444 11.6872 74.455C11.6872 75.3748 11.6872 76.0852 11.6872 77.1297Z" fill="white"/>
<path id="Vector_11" d="M109.096 77.779C108.237 77.779 107.536 77.779 106.863 77.779C106.409 78.7482 107.181 79.9573 106.393 80.7712C106.254 80.7477 106.115 80.7242 105.976 80.7006C105.976 78.6399 105.744 76.5416 106.054 74.528C106.278 73.0813 107.83 73.9469 108.778 73.7823C109.46 73.6647 109.879 74.0787 109.881 74.7985C109.888 76.7392 109.884 78.6776 109.884 80.6136C109.096 80.6607 109.096 80.6607 109.093 79.6021C109.096 79.0281 109.096 78.4541 109.096 77.779ZM109.213 76.9298C109.067 76.0711 109.124 75.2125 108.74 74.655C108.55 74.3751 107.193 74.4174 107.007 74.7138C106.654 75.2831 106.762 76.137 106.673 76.9298C107.578 76.9298 108.246 76.9298 109.213 76.9298Z" fill="white"/>
<path id="Vector_12" d="M21.9749 80.64C21.9749 78.6663 21.9749 76.6927 21.9749 74.719C21.9749 74.6861 21.9725 74.6484 21.9819 74.6179C22.4712 73.1547 23.7015 73.9333 24.6072 73.7804C25.2659 73.6698 25.8845 73.8627 25.8963 74.7002C25.9245 76.5421 25.9222 78.384 25.9034 80.226C25.901 80.3977 25.6917 80.567 25.5787 80.7388C25.4329 80.56 25.1718 80.3859 25.16 80.1977C25.113 79.4214 25.1412 78.6404 25.1412 77.7912C24.3061 77.7912 23.5792 77.7912 22.89 77.7912C22.4618 78.7698 23.2052 79.9672 22.3912 80.7694C22.2525 80.7247 22.1137 80.6823 21.9749 80.64ZM25.2541 76.9279C25.1059 76.0716 25.1624 75.213 24.7766 74.6602C24.579 74.3779 23.2263 74.4156 23.0429 74.7096C22.69 75.2789 22.7982 76.1328 22.7065 76.9279C23.6051 76.9279 24.2732 76.9279 25.2541 76.9279Z" fill="white"/>
<path id="Vector_13" d="M64.3398 80.7542C64.3398 78.3901 64.3398 76.1506 64.3398 73.7629C65.4384 73.7629 66.5205 73.7464 67.6003 73.7794C67.772 73.7841 67.939 74.0052 68.1084 74.1252C67.9437 74.2522 67.7838 74.4804 67.612 74.4898C66.831 74.5298 66.0477 74.5063 65.1891 74.5063C65.1891 75.2826 65.1891 75.9812 65.1891 76.6869C65.6901 77.228 66.8522 76.3458 67.2662 77.5855C66.4593 77.6232 65.8548 77.6491 65.182 77.6796C65.182 78.4183 65.182 79.1193 65.182 80.0061C65.9065 80.0061 66.6428 79.9779 67.3744 80.0226C67.6261 80.0391 67.8637 80.2414 68.1084 80.359C67.8849 80.4907 67.6638 80.7283 67.4356 80.7377C66.4217 80.7777 65.4055 80.7542 64.3398 80.7542Z" fill="white"/>
<path id="Vector_14" d="M97.1914 79.839C98.2076 79.2273 98.4993 78.3852 98.3982 77.296C98.3111 76.348 98.3558 75.3835 98.4005 74.4285C98.4099 74.205 98.6593 73.9933 98.7981 73.7769C98.9204 73.9768 99.1416 74.1721 99.1463 74.3744C99.1768 75.774 99.3697 77.2184 99.0851 78.5593C98.9157 79.3591 97.9818 80.0036 97.3631 80.6929C97.3067 80.7564 97.0009 80.707 96.9068 80.6129C96.0787 79.8037 94.9802 79.1991 95.1801 77.7077C95.3236 76.635 95.1872 75.5247 95.2295 74.4332C95.2389 74.2097 95.4883 73.9956 95.6294 73.7769C95.7635 74.005 96.0058 74.2285 96.0152 74.4614C96.0576 75.4847 96.1022 76.515 96.0152 77.5336C95.9258 78.5804 96.3304 79.2956 97.1914 79.839Z" fill="white"/>
<path id="Vector_15" d="M87.6411 77.6321C86.8554 77.6321 86.2861 77.6321 85.6274 77.6321C85.6274 78.4272 85.6274 79.1518 85.6274 80.008C86.3637 80.008 87.0741 79.9774 87.7799 80.0245C88.0245 80.041 88.2574 80.248 88.495 80.3679C88.2691 80.4973 88.048 80.7255 87.8175 80.7349C86.8648 80.7773 85.9073 80.7514 84.8652 80.7514C84.8652 78.439 84.8652 76.176 84.8652 73.7624C85.9215 73.7624 87.0036 73.7507 88.081 73.7765C88.2197 73.7813 88.3562 73.9906 88.4926 74.1035C88.3374 74.2353 88.1892 74.4729 88.0268 74.4823C87.2506 74.5223 86.4696 74.5011 85.6156 74.5011C85.6156 75.2915 85.6156 75.9902 85.6156 76.6935C86.112 77.2628 87.2717 76.2889 87.6411 77.6321Z" fill="white"/>
<path id="Vector_16" d="M130.105 77.6313C129.362 77.6313 128.758 77.6313 128.089 77.6313C128.089 78.424 128.089 79.1274 128.089 80.0119C128.873 80.0119 129.644 79.986 130.411 80.0307C130.611 80.0425 130.797 80.2754 130.99 80.4047C130.788 80.5224 130.588 80.7341 130.378 80.7411C129.393 80.7764 128.405 80.7576 127.344 80.7576C127.344 78.4123 127.344 76.1469 127.344 73.8228C128.567 73.8228 129.748 73.8228 130.926 73.8228C130.952 73.938 130.976 74.0509 131.002 74.1662C130.235 74.9354 129.092 74.2485 128.118 74.6367C128.118 75.3001 128.118 76.0222 128.118 76.7233C128.668 77.189 129.769 76.3304 130.105 77.6313Z" fill="white"/>
<path id="Vector_17" d="M118.125 74.6058C117.481 74.5681 117.015 74.5399 116.547 74.514C116.58 73.7495 116.58 73.7495 119.485 73.7612C120.447 73.7659 120.447 73.7659 120.471 74.514C119.979 74.5446 119.483 74.5752 118.904 74.6105C118.904 76.6617 118.904 78.6566 118.904 80.6514C118.796 80.7032 118.688 80.7525 118.579 80.8043C118.429 80.5596 118.154 80.3174 118.146 80.0704C118.104 78.6425 118.125 77.2122 118.125 75.782C118.125 75.415 118.125 75.048 118.125 74.6058Z" fill="white"/>
<path id="Vector_18" d="M75.8036 80.0083C76.4081 80.0083 76.8833 79.9683 77.3444 80.0272C77.5514 80.053 77.7325 80.2765 77.9254 80.4082C77.7513 80.5235 77.582 80.7282 77.4032 80.7376C76.6269 80.7752 75.8483 80.7541 74.9685 80.7541C74.9685 78.531 74.9591 76.3927 74.9849 74.2544C74.9873 74.0944 75.2272 73.9368 75.3566 73.7769C75.5048 73.9862 75.7777 74.1932 75.7824 74.4049C75.8177 76.2092 75.8036 78.0135 75.8036 80.0083Z" fill="white"/>
</g>
<path id="Vector_19" d="M65.6186 61.0961C64.9905 61.0961 64.4824 60.5879 64.4824 59.9598V1.16892C64.4824 0.540828 64.9905 0.0327148 65.6186 0.0327148C66.2467 0.0327148 66.7548 0.540828 66.7548 1.16892V59.9575C66.7572 60.5856 66.2467 61.0961 65.6186 61.0961Z" fill="white"/>
</g>
</svg>
